<?xml version="1.0" standalone="no"?>
<!DOCTYPE svg PUBLIC "-//W3C//DTD SVG 20010904//EN"
 "http://www.w3.org/TR/2001/REC-SVG-20010904/DTD/svg10.dtd">
<svg version="1.0" xmlns="http://www.w3.org/2000/svg"
 width="2000" height="530" viewBox="0 0 885.000000 234.000000"
 preserveAspectRatio="xMidYMid meet">
<metadata>
Created by potrace 1.10, written by Peter Selinger 2001-2011
</metadata>
<g transform="translate(0.000000,234.000000) scale(0.100000,-0.100000)"
fill="#000000" stroke="none">
<path d="M930 1835 c-19 -7 -49 -14 -67 -14 -35 -1 -114 -33 -218 -89 -43 -23
-135 -133 -165 -197 -103 -219 -78 -550 54 -720 77 -98 192 -171 311 -195 22
-4 56 -13 76 -19 25 -8 175 -10 470 -9 l434 3 0 355 0 355 -377 3 -378 2 -2
-237 -3 -238 -49 -3 c-68 -4 -163 34 -224 92 -74 69 -115 235 -92 374 16 93
30 132 70 182 34 42 119 100 149 100 10 0 35 7 54 15 30 12 101 15 412 15
l375 0 0 120 0 120 -397 -1 c-308 0 -406 -4 -433 -14z m620 -775 c1 -5 1 -55
1 -110 0 -55 0 -104 -1 -110 0 -14 -217 -13 -225 0 -4 6 -7 55 -7 110 0 55 3
104 7 110 8 13 225 14 225 0z"/>
<path d="M6545 1808 c-3 -7 -6 -80 -7 -163 l-3 -150 -255 -5 c-177 -3 -262 -9
-277 -17 -12 -7 -31 -13 -43 -13 -30 0 -128 -56 -172 -97 -48 -47 -86 -121
-104 -206 -36 -172 9 -352 111 -446 45 -42 135 -91 166 -91 11 0 33 -7 49 -15
25 -13 86 -15 402 -13 l373 3 0 610 0 610 -118 3 c-88 2 -119 -1 -122 -10z
m-17 -530 c9 -9 12 -76 12 -239 0 -188 -3 -229 -15 -239 -11 -9 -71 -11 -238
-9 -198 4 -226 6 -252 23 -79 50 -105 107 -105 226 0 102 18 153 74 203 46 41
63 44 317 46 140 1 198 -2 207 -11z"/>
<path d="M2115 1481 c-6 -6 -8 -48 -5 -98 l5 -88 382 -5 383 -5 24 -25 c22
-23 31 -62 27 -117 -1 -10 -88 -13 -373 -16 -407 -3 -415 -4 -482 -63 -57 -50
-76 -100 -76 -204 0 -104 19 -154 76 -204 69 -61 63 -60 598 -63 292 -2 493 0
500 6 8 7 10 109 6 368 -5 350 -6 359 -28 400 -27 48 -68 82 -130 106 -37 15
-93 17 -470 17 -256 0 -432 -4 -437 -9z m810 -621 l0 -65 -301 -3 c-183 -1
-312 2 -328 8 -55 20 -57 98 -4 120 13 5 160 8 328 7 l305 -2 0 -65z"/>
<path d="M3375 1478 c-3 -7 -4 -209 -3 -448 l3 -435 120 0 120 0 5 345 5 345
202 0 c253 0 246 4 252 -143 2 -58 8 -100 15 -104 13 -9 198 -11 220 -2 13 5
16 25 16 116 0 144 -18 207 -75 262 -76 74 -90 76 -508 76 -285 0 -369 -3
-372 -12z"/>
<path d="M4467 1483 c-4 -3 -7 -148 -7 -321 0 -368 7 -411 75 -488 67 -77 75
-78 445 -82 285 -2 330 -1 370 14 62 23 114 66 142 117 23 42 23 43 23 402 l0
360 -120 0 -120 0 -5 -327 c-5 -297 -7 -329 -23 -345 -16 -16 -42 -18 -225
-21 -243 -4 -270 0 -295 48 -15 31 -17 67 -17 333 1 163 -2 302 -5 307 -7 11
-228 14 -238 3z"/>
<path d="M7037 1484 c-12 -13 -8 -159 6 -177 11 -15 51 -17 389 -19 376 -3
378 -3 400 -25 17 -18 22 -35 23 -75 l0 -53 -375 -5 c-365 -5 -376 -6 -421
-28 -95 -47 -139 -124 -139 -242 0 -122 45 -196 147 -245 l54 -25 492 2 492 3
0 345 c0 384 -2 402 -63 470 -66 75 -61 74 -558 77 -242 2 -443 0 -447 -3z
m811 -566 c16 -16 16 -100 0 -116 -15 -15 -593 -17 -631 -3 -45 17 -48 103 -4
121 36 14 621 12 635 -2z"/>
</g>
</svg>
